<svg width="48" height="51" viewBox="0 0 48 51" fill="none" xmlns="http://www.w3.org/2000/svg">
<g id="alternate_email" filter="url(#filter0_d_49_120)">
<mask id="mask0_49_120" style="mask-type:alpha" maskUnits="userSpaceOnUse" x="1" y="0" width="46" height="46">
<rect id="Bounding box" x="1" width="46" height="46" fill="#D9D9D9"/>
</mask>
<g mask="url(#mask0_49_120)">
<path id="alternate_email_2" d="M24.0002 42.1667C21.3488 42.1667 18.8571 41.6636 16.5252 40.6573C14.1932 39.6511 12.1647 38.2854 10.4397 36.5604C8.71475 34.8354 7.34912 32.807 6.34287 30.475C5.33662 28.1431 4.8335 25.6514 4.8335 23C4.8335 20.3486 5.33662 17.857 6.34287 15.525C7.34912 13.1931 8.71475 11.1646 10.4397 9.43959C12.1647 7.71459 14.1932 6.34897 16.5252 5.34272C18.8571 4.33647 21.3488 3.83334 24.0002 3.83334C26.6516 3.83334 29.1432 4.33647 31.4752 5.34272C33.8071 6.34897 35.8356 7.71459 37.5606 9.43959C39.2856 11.1646 40.6512 13.1931 41.6575 15.525C42.6637 17.857 43.1668 20.3486 43.1668 23V25.7792C43.1668 27.6639 42.52 29.2691 41.2262 30.5948C39.9325 31.9205 38.3432 32.5833 36.4585 32.5833C35.3404 32.5833 34.2863 32.3438 33.296 31.8646C32.3057 31.3854 31.4752 30.6986 30.8043 29.8042C29.8779 30.7306 28.8318 31.4254 27.6658 31.8886C26.4998 32.3517 25.2779 32.5833 24.0002 32.5833C21.3488 32.5833 19.0887 31.649 17.22 29.7802C15.3512 27.9115 14.4168 25.6514 14.4168 23C14.4168 20.3486 15.3512 18.0886 17.22 16.2198C19.0887 14.3511 21.3488 13.4167 24.0002 13.4167C26.6516 13.4167 28.9116 14.3511 30.7804 16.2198C32.6491 18.0886 33.5835 20.3486 33.5835 23V25.7792C33.5835 26.6097 33.855 27.3125 34.3981 27.8875C34.9411 28.4625 35.6279 28.75 36.4585 28.75C37.2891 28.75 37.9759 28.4625 38.5189 27.8875C39.062 27.3125 39.3335 26.6097 39.3335 25.7792V23C39.3335 18.7195 37.8481 15.0938 34.8772 12.1229C31.9064 9.15209 28.2807 7.66668 24.0002 7.66668C19.7196 7.66668 16.0939 9.15209 13.1231 12.1229C10.1522 15.0938 8.66683 18.7195 8.66683 23C8.66683 27.2806 10.1522 30.9063 13.1231 33.8771C16.0939 36.8479 19.7196 38.3333 24.0002 38.3333H33.5835V42.1667H24.0002ZM24.0002 28.75C25.5974 28.75 26.955 28.191 28.0731 27.0729C29.1911 25.9549 29.7502 24.5972 29.7502 23C29.7502 21.4028 29.1911 20.0451 28.0731 18.9271C26.955 17.809 25.5974 17.25 24.0002 17.25C22.4029 17.25 21.0453 17.809 19.9272 18.9271C18.8092 20.0451 18.2502 21.4028 18.2502 23C18.2502 24.5972 18.8092 25.9549 19.9272 27.0729C21.0453 28.191 22.4029 28.75 24.0002 28.75Z" fill="white" fill-opacity="0.75"/>
</g>
</g>
<defs>
<filter id="filter0_d_49_120" x="0.833496" y="3.83334" width="46.3335" height="46.3333" filterUnits="userSpaceOnUse" color-interpolation-filters="sRGB">
<feFlood flood-opacity="0" result="BackgroundImageFix"/>
<feColorMatrix in="SourceAlpha" type="matrix" values="0 0 0 0 0 0 0 0 0 0 0 0 0 0 0 0 0 0 127 0" result="hardAlpha"/>
<feOffset dy="4"/>
<feGaussianBlur stdDeviation="2"/>
<feComposite in2="hardAlpha" operator="out"/>
<feColorMatrix type="matrix" values="0 0 0 0 0 0 0 0 0 0 0 0 0 0 0 0 0 0 0.25 0"/>
<feBlend mode="normal" in2="BackgroundImageFix" result="effect1_dropShadow_49_120"/>
<feBlend mode="normal" in="SourceGraphic" in2="effect1_dropShadow_49_120" result="shape"/>
</filter>
</defs>
</svg>
